<svg width="320" height="320" viewBox="0 0 320 320" fill="none" xmlns="http://www.w3.org/2000/svg">
<g clip-path="url(#clip0_384_1820)">
<path d="M320 160.018C320 248.352 248.306 320 160 320C71.6945 320 0 248.352 0 160.018C0 71.6845 71.6357 0 159.986 0C248.337 0 320 71.6302 320 160.018Z" fill="#E83E44"/>
<path d="M77.5835 122.111C72.545 119.099 66.8505 118.244 61.1064 119.076C71.5906 107.905 77.285 95.7558 77.285 83.4986C77.2978 82.3701 77.2435 81.2419 77.1222 80.1199C76.5794 72.4897 73.0515 66.7682 67.624 64.8368C62.1738 62.7925 52.1735 63.8282 36.2934 80.0657L26.759 90.7444C24.1175 93.9557 14.0947 109.13 12.2402 124.929C9.13296 151.791 11.123 178.599 17.9618 202.367C18.7487 205.144 21.3133 211.865 27.46 214.33C34.0002 216.999 40.2103 213.783 45.7102 210.947L47.1847 210.214L52.8474 207.677L58.3519 205.257L65.0549 202.312C69.8764 200.349 74.3994 198.527 78.8092 194.822C84.6869 189.823 88.9847 183.223 91.1796 175.826C92.3925 171.656 93.176 167.373 93.518 163.044C93.8707 159.34 94.2507 152.148 92.8621 145.825C89.8453 131.908 82.9252 125.259 77.5835 122.111ZM26.6685 142.175C26.6685 142.284 26.9715 145.703 26.9715 145.703C26.9405 146.08 27.0285 146.458 27.2232 146.782C27.418 147.107 27.7096 147.362 28.057 147.512C28.3854 147.649 28.7466 147.686 29.0958 147.618C29.4449 147.55 29.7664 147.381 30.02 147.132C35.9858 142.116 45.0317 137.634 52.3047 140.14C57.9946 142.116 61.8662 147.987 63.8835 157.616C68.022 177.802 54.1817 187.531 45.5473 191.494L45.2489 191.629L34.1856 197.057C33.9751 197.135 33.751 197.17 33.5266 197.161C33.3022 197.152 33.0819 197.098 32.8785 197.002C32.2001 196.645 32.0101 196.211 31.5217 195.012C24.0045 167.264 21.4444 138.118 24.2487 110.885C24.6216 108.504 25.5876 106.255 27.0575 104.345L36.3431 94.4442L37.3789 93.3134C42.422 88.4105 47.1621 85.9591 49.7221 87.022C51.8479 87.9266 52.3635 91.3233 52.3906 93.9964C52.8429 108.47 44.7378 123.237 27.7902 139.158C27.3831 139.54 27.0701 140.012 26.8755 140.535C26.6809 141.058 26.61 141.62 26.6685 142.175Z" fill="white"/>
<path d="M203.17 37.7878C200.063 27.1362 194.992 24.9018 193.523 24.4134C180.445 20.2142 166.543 19.2596 153.015 21.6317C132.883 25.336 115.474 35.9062 103.927 51.3793C91.801 67.662 87.1152 87.9656 90.7109 108.509C94.361 129.129 104.768 145.828 120.951 156.755C139.912 169.528 165.136 173.423 192.107 167.755C208.041 164.3 221.203 158.103 231.389 149.315C235.939 145.367 236.816 140.342 236.816 136.814C236.816 136.814 237.061 133.964 234.853 124.991C234.256 122.811 233.302 122.155 231.773 122.155C230.661 122.155 229.512 123.435 229.268 123.706C221.669 132.508 210.09 138.632 195.626 141.481C158.497 148.623 129.948 131.282 122.865 97.2829C119.839 82.5561 122.345 68.4354 130.025 57.5079C137.714 46.395 150.378 39.0406 165.607 36.752C177.107 35.0435 188.855 36.4847 199.601 40.9222C199.601 40.9222 204.147 42.2429 203.17 37.7878Z" fill="white"/>
</g>
<defs>
<clipPath id="clip0_384_1820">
<rect width="320" height="320" fill="white"/>
</clipPath>
</defs>
</svg>
