<svg width="900" height="330" viewBox="0 0 900 330" fill="none" xmlns="http://www.w3.org/2000/svg">
<g clip-path="url(#clip0_80_230)">
<path d="M783.398 204C778.214 204 773.549 203.111 769.403 201.333C765.255 199.481 761.997 196.889 759.628 193.556C757.258 190.222 756.073 186.333 756.073 181.889H769.625C769.92 185.222 771.217 187.963 773.513 190.111C775.882 192.259 779.177 193.333 783.398 193.333C787.767 193.333 791.174 192.296 793.617 190.222C796.061 188.074 797.283 185.333 797.283 182C797.283 179.407 796.505 177.296 794.95 175.667C793.469 174.037 791.58 172.778 789.285 171.889C787.064 171 783.954 170.037 779.955 169C774.919 167.667 770.809 166.333 767.625 165C764.515 163.593 761.849 161.444 759.628 158.556C757.406 155.667 756.296 151.815 756.296 147C756.296 142.556 757.406 138.667 759.628 135.333C761.849 132 764.96 129.444 768.958 127.667C772.957 125.889 777.585 125 782.843 125C790.322 125 796.431 126.889 801.171 130.667C805.984 134.37 808.65 139.481 809.168 146H795.173C794.95 143.185 793.617 140.778 791.174 138.778C788.73 136.778 785.509 135.778 781.51 135.778C777.881 135.778 774.919 136.704 772.624 138.556C770.328 140.407 769.181 143.074 769.181 146.556C769.181 148.926 769.884 150.889 771.291 152.444C772.772 153.926 774.623 155.111 776.845 156C779.066 156.889 782.102 157.852 785.953 158.889C791.063 160.296 795.209 161.704 798.394 163.111C801.652 164.519 804.392 166.704 806.613 169.667C808.908 172.556 810.057 176.444 810.057 181.333C810.057 185.259 808.983 188.963 806.836 192.444C804.762 195.926 801.688 198.741 797.616 200.889C793.617 202.963 788.878 204 783.398 204Z" fill="black"/>
<path d="M718.033 204.112H639.391V128.334H717.7C734.806 128.334 741.248 135.334 741.248 147.223C741.137 155.778 736.916 162.001 728.585 164.445C738.916 166.556 744.136 173.112 744.136 184.001C744.136 197.778 736.361 204.112 718.033 204.112ZM714.368 138.89H652.72V161.001H715.589C722.92 161.001 728.585 157.667 728.585 149.89C728.585 142.334 724.476 138.89 714.368 138.89ZM716.811 170.89H652.72V194.334H715.7C726.919 194.334 731.362 191.334 731.362 182.556C731.362 173.89 725.92 170.89 716.811 170.89Z" fill="black"/>
<path d="M608.922 187.667H576.599L571.045 203.445H557.827L585.485 126.111H600.147L627.805 203.445H614.476L608.922 187.667ZM605.368 177.334L592.816 141.445L580.153 177.334H605.368Z" fill="black"/>
<path d="M507.798 193.667H551.311V203.889H495.135L494.986 126.111H507.649L507.798 193.667Z" fill="black"/>
<path d="M437.744 126.111V203.334H425.081V150.445L401.533 203.334H392.758L369.098 150.445V203.334H356.435V126.111H370.098L397.201 186.667L424.192 126.111H437.744Z" fill="black"/>
<path d="M335.834 126.111V181.778C335.834 188.667 333.724 194.111 329.503 198.111C325.355 202.111 319.876 204.111 313.063 204.111C306.25 204.111 300.734 202.111 296.513 198.111C292.365 194.111 290.292 188.667 290.292 181.778H303.066C303.14 185.185 303.992 187.889 305.621 189.889C307.324 191.889 309.804 192.889 313.063 192.889C316.321 192.889 318.801 191.889 320.505 189.889C322.208 187.815 323.06 185.111 323.06 181.778V126.111H335.834Z" fill="black"/>
<path d="M220.013 203.444C179.026 203.444 160.254 191.444 160.254 164.222C160.254 137 179.026 125 220.013 125C261 125 279.772 137 279.772 164.222C279.772 191.444 261 203.444 220.013 203.444ZM220.013 191.667C254.447 191.667 265.999 183.222 265.999 164.222C265.999 145.222 254.447 136.778 220.013 136.778C185.58 136.778 173.805 145.222 173.805 164.222C173.805 183.222 185.58 191.667 220.013 191.667Z" fill="black"/>
<path d="M152.869 126.111L127.322 175.334V203.334H114.659V175.334L89 126.111H103.107L120.99 164L138.874 126.111H152.869Z" fill="black"/>
</g>
<defs>
<clipPath id="clip0_80_230">
<rect width="722" height="80" fill="white" transform="translate(89 125)"/>
</clipPath>
</defs>
</svg>
