<svg width="900" height="330" viewBox="0 0 900 330" fill="none" xmlns="http://www.w3.org/2000/svg">
<g clip-path="url(#clip0_80_174)">
<path d="M350.729 179.283C350.729 158.929 365.054 143.574 384.233 143.574C396.545 143.574 404.831 149.524 408.262 155.356V143.574H420.457V213.333H408.262V203.211C404.831 209.05 396.545 214.999 384.233 214.999C365.054 214.999 350.729 199.644 350.729 179.283ZM408.501 179.283C408.501 165.119 399.031 154.405 385.295 154.405C371.559 154.405 362.684 165.119 362.684 179.283C362.684 193.447 371.682 204.168 385.295 204.168C398.908 204.168 408.501 193.454 408.501 179.283Z" fill="black"/>
<path d="M444.718 203.212V213.334H432.523V115H444.718V155.357C448.156 149.525 456.441 143.575 468.753 143.575C487.933 143.575 502.251 158.93 502.251 179.284C502.251 199.638 487.933 215 468.753 215C456.441 215 448.156 209.051 444.718 203.212ZM490.302 179.284C490.302 165.12 481.304 154.406 467.691 154.406C454.078 154.406 444.485 165.12 444.485 179.284C444.485 193.448 453.962 204.169 467.691 204.169C481.421 204.169 490.302 193.455 490.302 179.284Z" fill="black"/>
<path d="M522.971 115H510.776V213.334H522.971V115Z" fill="black"/>
<path d="M531.497 179.283C531.497 158.806 545.699 143.574 565.474 143.574C585.25 143.574 599.329 158.812 599.329 179.283C599.329 180.833 599.329 182.616 599.095 184.282H543.692C544.993 195.947 553.402 204.636 565.474 204.636C574.705 204.636 581.929 200.353 584.414 194.756H596.843C593.173 206.537 580.984 214.993 565.474 214.993C545.705 214.993 531.497 199.755 531.497 179.277M565.474 153.924C553.279 153.924 544.993 162.496 543.692 174.284H587.379C585.955 162.379 577.67 153.924 565.474 153.924Z" fill="black"/>
<path d="M619.926 143.568V155.714C622.884 150.592 631.053 143.568 644.31 143.568C648.453 143.568 651.178 143.926 653.541 144.76V156.424C650.939 155.233 647.625 154.523 643.482 154.523C629.629 154.523 619.92 165.712 619.92 178.093V213.333H607.724V143.568H619.92H619.926Z" fill="black"/>
<path d="M328.908 144.174H246V154.283L328.908 154.165V144.174Z" fill="black"/>
<path d="M347.699 213.334H335.523C314.939 213.334 298.258 196.56 298.258 175.867V116.66H308.576V173.804C308.576 189.908 321.561 202.958 337.569 202.958H347.699V213.334Z" fill="black"/>
</g>
<defs>
<clipPath id="clip0_80_174">
<rect width="407.547" height="100" fill="white" transform="translate(246 115)"/>
</clipPath>
</defs>
</svg>
