<svg width="900" height="330" viewBox="0 0 900 330" fill="none" xmlns="http://www.w3.org/2000/svg">
<g clip-path="url(#clip0_80_196)">
<path d="M385.928 165.668H288V177.806H300.245V202.06H312.49V177.806H361.449V202.06H373.683V177.806H385.928V165.668Z" fill="black"/>
<path d="M361.83 105.021H311.903C298.766 105.021 288.022 115.672 288.022 128.694V129.933C288.022 142.955 298.766 153.606 311.903 153.606H361.83C374.967 153.606 385.711 142.955 385.711 129.933V128.694C385.711 115.672 374.967 105.021 361.83 105.021ZM361.438 141.328H312.295C305.628 141.328 300.169 135.916 300.169 129.308C300.169 122.7 305.628 117.289 312.295 117.289H361.438C368.104 117.289 373.564 122.7 373.564 129.308C373.564 135.916 368.104 141.328 361.438 141.328Z" fill="black"/>
<path d="M483.737 105V202.061H495.982V105H483.737Z" fill="black"/>
<path d="M445.751 147.418L438.911 161.928L457.789 202.071H471.459L445.751 147.418Z" fill="black"/>
<path d="M441.608 138.622L457.42 105H443.75L434.778 124.091L427.938 138.622L398.087 202.071H411.756L434.778 153.142V153.153L441.608 138.622Z" fill="black"/>
<path d="M611.93 189.943H514.013V202.071H611.93V189.943Z" fill="black"/>
<path d="M555.673 105L514.023 177.806H528.258L549.747 140.261L569.909 105H555.673Z" fill="black"/>
<path d="M574.401 112.189L567.279 124.64L597.695 177.806H611.94L574.401 112.189Z" fill="black"/>
<path d="M564.243 224.99C562.982 224.99 562.079 224.645 561.47 223.944C560.894 223.255 560.71 222.489 560.894 221.605L561.774 217.52C561.97 216.603 562.482 215.838 563.351 215.159C564.243 214.469 565.299 214.135 566.583 214.135H574.401C575.694 214.135 576.609 214.469 577.185 215.159C577.762 215.827 577.946 216.593 577.75 217.498L576.858 221.638C576.674 222.511 576.151 223.265 575.282 223.955C574.39 224.656 573.345 225.001 572.062 225.001H564.243V224.99ZM567.191 215.461C566.396 215.461 565.679 215.687 565.071 216.129C564.451 216.582 564.026 217.218 563.842 217.951L563.167 221.12C563.003 221.864 563.167 222.489 563.635 222.942C564.07 223.373 564.69 223.599 565.462 223.599H571.485C572.301 223.589 573.02 223.362 573.617 222.931C574.26 222.5 574.685 221.853 574.846 221.088L575.51 217.972C575.662 217.196 575.51 216.56 575.065 216.118C574.65 215.687 574.03 215.461 573.226 215.461H567.212H567.191Z" fill="black"/>
<path d="M487.848 224.989L483.835 214.145H486.303L489.076 222.122C489.196 222.477 489.533 222.704 489.946 222.704C490.36 222.704 490.795 222.477 491.066 222.122L497.254 214.145H499.625L490.969 224.989H487.869H487.848Z" fill="black"/>
<path d="M582.111 224.989C580.85 224.989 579.947 224.644 579.338 223.943C578.762 223.253 578.578 222.488 578.762 221.604L580.359 214.145H582.524L581.035 221.108C580.871 221.852 581.035 222.477 581.491 222.93C581.927 223.361 582.547 223.588 583.319 223.588H587.549C588.341 223.588 589.061 223.361 589.681 222.919C590.31 222.488 590.746 221.852 590.898 221.108L592.387 214.145H594.53L592.931 221.604C592.746 222.488 592.225 223.253 591.345 223.943C590.462 224.644 589.409 224.978 588.125 224.978H582.111V224.989Z" fill="black"/>
<path d="M554.793 224.989L550.967 220.127C550.803 219.912 550.542 219.793 550.227 219.793H548.159C547.53 219.793 546.91 220.3 546.778 220.925L545.93 224.989H543.777L546.105 214.145H556.936C558.229 214.145 559.186 214.468 559.698 215.082C560.221 215.708 560.394 216.43 560.221 217.303C560.09 217.917 559.806 218.413 559.35 218.791C558.229 219.718 556.349 219.793 555.793 219.793H553.248L557.609 224.989H554.804H554.793ZM547.235 218.963H555.664C556.097 218.963 556.946 218.942 557.589 218.349C557.849 218.101 558.165 217.68 558.186 217.001C558.229 216.009 557.642 215.503 556.457 215.503H547.954L547.226 218.963H547.235Z" fill="black"/>
<path d="M595.867 224.989L598.195 214.145H608.602C609.831 214.145 610.702 214.479 611.287 215.179C611.875 215.88 612.06 216.678 611.854 217.616C611.755 218.057 611.091 220.289 607.274 220.289H600.141C599.511 220.289 598.891 220.796 598.76 221.421L597.999 224.978H595.856L595.867 224.989ZM599.336 218.942H607.145C607.961 218.942 608.581 218.747 609.026 218.359C609.277 218.144 609.582 217.766 609.667 217.184C609.819 216.117 609.222 215.503 608.037 215.503H600.065L599.348 218.942H599.336Z" fill="black"/>
<path d="M477.603 224.989L479.931 214.145H482.062L479.735 224.989H477.603Z" fill="black"/>
<path d="M529.334 224.989C528.074 224.989 527.17 224.644 526.562 223.943C525.985 223.253 525.801 222.488 525.985 221.604L526.746 218.09C527.129 216.29 528.366 214.145 532.066 214.145H543.549L543.254 215.503H532.338C530.01 215.513 529.074 217.368 528.91 218.09L528.27 221.087C528.106 221.841 528.27 222.477 528.714 222.93C529.15 223.361 529.759 223.577 530.531 223.588H537.24C538.024 223.577 538.568 223.415 538.971 223.092C539.384 222.758 539.668 222.272 539.808 221.604L540.133 220.063H535.512L535.751 218.952H542.516L541.83 222.143C541.668 222.908 541.21 223.544 540.449 224.094C539.645 224.676 538.764 224.967 537.775 224.989H529.346H529.334Z" fill="black"/>
<path d="M466.457 224.989L468.251 216.635C468.381 216.009 467.979 215.503 467.348 215.503H463.151L463.444 214.145H477.516L477.223 215.503H471.775C471.144 215.503 470.524 216.009 470.393 216.635L468.599 224.989H466.457Z" fill="black"/>
<path d="M424.784 224.979L420.956 220.117C420.793 219.902 420.532 219.783 420.217 219.783H418.15C417.52 219.783 416.9 220.29 416.769 220.915L415.921 224.979H413.768L416.095 214.135H426.926C428.221 214.135 429.177 214.458 429.689 215.073C430.211 215.698 430.385 216.42 430.211 217.293C430.08 217.908 429.797 218.404 429.341 218.781C428.221 219.708 426.339 219.783 425.785 219.783H423.24L427.601 224.979H424.795H424.784ZM417.215 218.953H425.643C426.078 218.953 426.926 218.932 427.568 218.339C427.829 218.091 428.144 217.671 428.166 216.991C428.199 216 427.622 215.493 426.437 215.493H417.933L417.204 218.953H417.215Z" fill="black"/>
<path d="M406.786 214.145H413.725L413.431 215.503H404.47C402.143 215.524 401.218 217.379 401.055 218.09L400.414 221.087C400.25 221.831 400.414 222.467 400.859 222.93C401.305 223.361 401.914 223.577 402.687 223.588H411.713L411.419 224.989H401.501C400.24 224.989 399.326 224.644 398.728 223.943C398.152 223.253 397.967 222.488 398.152 221.615L398.902 218.101C399.293 216.29 400.522 214.145 404.22 214.145H405.873" fill="black"/>
<path d="M430.461 224.989L432.505 215.503H432.494L432.788 214.145H445.773L445.479 215.503H434.626L433.886 218.952H444.739L444.5 220.084H433.636L432.886 223.62H443.739L443.456 224.989H430.461Z" fill="black"/>
<path d="M498.896 224.989L500.93 215.503L501.213 214.145H514.208L513.915 215.503H503.061L502.311 218.952H513.175L512.936 220.084H502.072L501.311 223.62H512.175L511.881 224.989H498.896Z" fill="black"/>
<path d="M460.171 224.989L456.876 216.904C456.734 216.57 456.419 216.365 456.017 216.365C455.615 216.365 455.212 216.57 454.929 216.904L448.187 224.989H445.838L454.984 214.145H458.105L462.607 224.989H460.171Z" fill="black"/>
</g>
<defs>
<clipPath id="clip0_80_196">
<rect width="325" height="120" fill="white" transform="translate(288 105)"/>
</clipPath>
</defs>
</svg>
