<svg width="900" height="330" viewBox="0 0 900 330" fill="none" xmlns="http://www.w3.org/2000/svg">
<path d="M59.7826 150.612H81.3646L61.2406 205.001H38.9193L59.7826 150.612Z" fill="black"/>
<path d="M113.92 143.75L22 143.495L29.5758 126.213H125.031L120.39 135.387C118.785 138.561 116.589 141.399 113.92 143.75Z" fill="black"/>
<path d="M333.626 177.046L338.952 162.954H360.103L362.873 164.715L383.016 203.721H358.089L348.481 178.304L348.017 177.046H333.626Z" fill="black"/>
<path d="M373.913 126.213H401.397L394.918 131.498L367.153 155.404H341.605L354.312 143.325L373.913 126.213Z" fill="black"/>
<path d="M325.742 126.213H347.261L318.557 203.789H297.154L325.742 126.213Z" fill="black"/>
<path d="M180.635 126.213H184.085H184.692L194.124 203.789H183.727H172.316L166.688 154.942L165.42 144.23L120.206 203.789H112.17H95.9414L155.434 126.213H159.842H180.635Z" fill="black"/>
<path d="M288.011 174.699L214.73 174.479L221.371 156.518H294.731L288.261 174.171L288.011 174.699Z" fill="black"/>
<path d="M278.312 205L205.031 204.78L211.672 186.818H285.032L278.562 204.472L278.312 205Z" fill="black"/>
<path d="M472.47 126.213H497.156L467.234 165.505L438.309 202.781L437.561 203.789H412.127L471.722 127.22L472.47 126.213Z" fill="black"/>
<path d="M428.834 167.519L409.883 126.213L433.073 126.213L434.32 129.235L443.229 149.637L428.834 167.519Z" fill="black"/>
<path d="M556.873 168.793H577.879C577.879 168.793 575.494 177.609 572.877 182.791C571.338 185.84 570.484 187.602 568.376 190.29C566.332 192.898 564.133 195.118 562.375 196.289L557.874 199.288C556.116 200.46 552.226 201.905 548.371 202.788C544.734 203.621 538.869 203.788 538.869 203.788H510.862C510.862 203.788 506.22 203.532 503.36 202.788L503.186 202.743C500.658 202.085 499.121 201.685 496.858 200.288C494.622 198.908 493.406 197.911 491.857 195.789C489.996 193.241 489.404 191.396 488.856 188.29C488.244 184.824 489.356 179.292 489.356 179.292L492.857 169.293H513.362L510.362 178.292C510.362 178.292 510.228 180.85 510.862 182.291C511.475 183.687 512.136 184.383 513.362 185.291C514.558 186.175 516.863 186.79 516.863 186.79L539.369 187.29C539.369 187.29 541.847 187.19 543.37 186.79C545.231 186.303 546.26 185.841 547.871 184.791C549.953 183.433 550.876 182.276 552.372 180.291C555.276 176.441 556.873 168.793 556.873 168.793Z" fill="black"/>
<path d="M516.863 160.294H495.858L500.359 147.796C500.359 147.796 503.424 141.558 506.36 138.298C509.054 135.306 510.921 133.888 514.362 131.799C518.33 129.39 520.872 128.468 525.365 127.299C527.293 126.798 530.367 126.3 530.367 126.3C530.367 126.3 553.71 123.066 567.876 126.799C569.848 127.319 571.007 127.489 572.877 128.299C574.967 129.205 576.122 129.85 577.879 131.299C579.693 132.795 580.663 133.786 581.88 135.798C582.968 137.597 583.373 138.757 583.88 140.797C584.77 144.38 584.435 146.606 583.888 150.243L583.88 150.296C583.302 154.143 580.88 159.794 580.88 159.794H560.374C560.374 159.794 563.965 153.367 562.875 149.296C562.603 148.28 562.429 147.69 561.875 146.796C561.147 145.623 560.519 145.069 559.374 144.297C557.215 142.839 552.872 142.797 552.872 142.797H535.868C535.868 142.797 531.457 142.841 528.866 143.797C526.98 144.493 525.933 145.038 524.365 146.296C522.746 147.596 522.049 148.592 520.864 150.296C518.462 153.749 516.863 160.294 516.863 160.294Z" fill="black"/>
<path d="M666.383 126.213H687.92H688.672L667.635 184.213C667.635 184.213 665.252 189.789 662.877 192.787C660.284 196.061 658.437 197.708 654.863 199.848C651.616 201.792 649.472 202.308 645.847 203.379C634.584 206.706 615.794 203.883 615.794 203.883L621.805 187.492C621.805 187.492 632.859 189.478 639.335 187.24C641.158 186.61 642.307 186.393 643.843 185.222C645.282 184.127 646.849 181.692 646.849 181.692L666.383 126.213Z" fill="black"/>
<path d="M609.417 126.213H630.821L611.787 179.674C611.787 179.674 611.349 182.979 612.288 184.718C613.15 186.313 615.794 187.24 615.794 187.24L609.784 203.883H605.777L599.265 202.37L594.758 199.848C594.758 199.848 591.384 196.521 590.25 193.796C588.66 189.977 589.498 183.137 589.498 183.137L609.417 126.213Z" fill="black"/>
<path d="M764.983 126.213H786.852L762.218 193.462L750.907 166.512L750.57 165.756L764.983 126.213Z" fill="black"/>
<path d="M677.76 203.789L706.164 126.213H721.749H725.771L757.442 203.789H755.781H735.825H734.82L715.716 159.46L699.88 203.789H677.76Z" fill="black"/>
<path d="M785.465 196.232C784.157 194.461 783.607 193.291 782.937 191.195C781.858 187.816 781.876 185.41 782.179 181.876C782.636 176.544 786.475 169.031 786.475 169.031H807.451C807.451 169.031 804.534 174.067 804.166 177.594C804.002 179.159 803.719 180.115 804.166 181.624C804.838 183.896 805.834 186.077 808.209 186.158C823.12 186.661 838.536 186.661 838.536 186.661L846.117 169.031H866.84L854.71 202.277L854.204 203.789H799.617C799.617 203.789 795.149 202.977 792.541 201.774C791.097 201.107 790.28 200.704 789.003 199.759C787.434 198.598 786.623 197.801 785.465 196.232Z" fill="black"/>
<path d="M810.231 159.963L789.508 159.46C789.508 159.46 791.834 150.827 794.563 145.859C795.798 143.609 796.528 142.348 798.101 140.318C800.318 137.455 801.78 135.954 804.671 133.769C807.559 131.587 809.415 130.629 812.758 129.235C817.617 127.21 825.9 126.213 825.9 126.213H878.971L872.906 138.303L870.378 143.34C870.378 143.34 841.568 143.844 824.636 143.844C822.95 143.844 820.793 144.521 819.329 145.355C817.507 146.392 816.674 147.313 815.286 148.881C812.129 152.445 810.231 159.963 810.231 159.963Z" fill="black"/>
<path d="M298.92 143.183L225.639 142.977L232.28 126.213H305.64L299.17 142.69L298.92 143.183Z" fill="black"/>
</svg>
