<svg width="320" height="320" viewBox="0 0 320 320" fill="none" xmlns="http://www.w3.org/2000/svg">
<path d="M209.155 188.385C208.446 183.997 207.191 179.715 205.419 175.638C200.352 163.437 191.524 153.171 180.219 146.336C171.357 141.014 161.202 138.233 150.865 138.298C140.528 138.363 130.408 141.27 121.614 146.702C113.431 151.62 106.784 158.723 102.421 167.214C100.98 170.114 99.7789 173.128 98.8309 176.224C96.1489 184.275 95.117 192.783 95.7967 201.241C96.4763 209.699 98.8537 217.934 102.787 225.453C105.487 230.072 109.631 233.676 114.581 235.708C117.035 236.722 119.693 237.144 122.34 236.94C124.987 236.737 127.549 235.913 129.818 234.536C132.353 232.576 134.249 229.908 135.266 226.869C136.283 223.831 136.376 220.559 135.532 217.468C133.533 209.629 133.736 201.39 136.118 193.659C137.001 191.135 138.427 188.834 140.294 186.92C141.478 185.781 142.839 184.841 144.323 184.136C147.441 182.554 150.977 181.99 154.432 182.524C157.386 183.165 160.146 184.495 162.488 186.404C164.83 188.314 166.689 190.749 167.912 193.513C170.302 199.093 171.548 205.097 171.574 211.168C171.671 237.907 167.719 264.508 159.853 290.065C159.194 292.702 158.462 295.266 157.729 297.83C156.996 300.394 156.117 302.371 157.729 304.349C158.337 305.137 159.147 305.745 160.073 306.108C164.029 307.719 167.399 305.302 169.816 302.665C184.738 286.716 195.726 267.5 201.903 246.55C204.467 238.855 206.523 231 208.056 223.035C210.435 211.564 210.832 199.77 209.228 188.165" fill="#008485"/>
<path d="M319.707 66.707C319.671 65.7953 319.45 64.9004 319.058 64.0767C318.665 63.2529 318.11 62.5172 317.425 61.9145C316.74 61.3117 315.94 60.8543 315.073 60.57C314.206 60.2857 313.29 60.1803 312.381 60.2604C308.602 60.8029 304.939 61.9663 301.539 63.7034C233.631 89.4896 157.078 94.3978 85.5067 84.0686C73.2729 82.3105 60.8926 79.8931 48.8786 77.9151C41.553 76.743 33.568 74.9849 25.8029 74.3989C18.8148 73.0464 11.5743 74.4368 5.58417 78.2815C2.49107 81.6557 0.570511 85.9387 0.108508 90.4928C-0.353495 95.0468 0.667782 99.6282 3.02021 103.555C8.26297 112.515 15.8648 119.863 24.9971 124.799C33.4314 130.808 43.4384 134.22 53.7868 134.616C81.1114 132.931 108.436 130.22 135.614 126.704C181.985 120.697 230.847 114.983 274.068 97.035C288.536 91.3306 302.164 83.6913 314.579 74.3257C316.777 72.6408 320 69.857 320 67" fill="#008485"/>
<path d="M124.922 43.4185C125.28 50.2584 128.25 56.7 133.218 61.4148C138.186 66.1296 144.774 68.758 151.624 68.758C158.473 68.758 165.061 66.1296 170.029 61.4148C174.998 56.7 177.967 50.2584 178.326 43.4185C178.347 41.2165 177.871 39.038 176.934 37.0452C174.663 32.137 172.026 29.7195 172.319 24.0056C172.319 16.1671 162.576 16.0206 157.155 16.0206C151.125 15.8245 145.132 17.028 139.646 19.5369C135.327 21.7335 131.684 25.0596 129.104 29.1615C126.524 33.2635 125.104 37.9879 124.995 42.8325V43.4185" fill="#008485"/>
</svg>
