<svg width="320" height="320" viewBox="0 0 320 320" fill="none" xmlns="http://www.w3.org/2000/svg">
<rect width="320" height="320" rx="80" fill="black"/>
<g clip-path="url(#clip0_384_1800)">
<path d="M45.8931 135.594C38.2355 135.594 32 141.826 32 149.487V186.537H36.6296V149.487C36.6296 148.27 36.8692 147.066 37.3348 145.942C37.8003 144.818 38.4827 143.797 39.3429 142.937C40.2031 142.077 41.2243 141.395 42.3482 140.929C43.4721 140.464 44.6767 140.224 45.8931 140.224H274.108C275.324 140.224 276.529 140.464 277.652 140.93C278.776 141.395 279.797 142.077 280.657 142.937C281.517 143.798 282.199 144.819 282.665 145.942C283.13 147.066 283.369 148.271 283.369 149.487V186.537H288V149.487C288 141.825 281.766 135.594 274.108 135.594H45.8931Z" fill="white"/>
<path d="M74.6709 176.774C74.6709 177.138 74.4403 177.27 74.0442 177.27H70.6093C70.2132 177.27 70.0819 177.138 70.0819 176.742V167.399C70.0819 166.972 69.784 166.737 69.3547 166.737H60.3411C59.945 166.737 59.7122 166.97 59.7122 167.399V176.742C59.7122 177.138 59.4816 177.27 59.1196 177.27H55.6175C55.2886 177.27 55.1562 177.138 55.1562 176.774V153.562C55.1562 153.199 55.2886 153 55.6175 153H59.1196C59.4816 153 59.7122 153.199 59.7122 153.562V162.542C59.7122 162.969 59.945 163.17 60.3411 163.17H69.359C69.7861 163.17 70.0861 162.971 70.0861 162.542V153.562C70.0861 153.199 70.2175 153 70.6136 153H74.0484C74.4446 153 74.6752 153.199 74.6752 153.562L74.6709 176.774Z" fill="white"/>
<path d="M82.9578 177.604C80.4156 177.604 79.0938 175.558 79.0938 173.808V159.378C79.0938 158.951 79.2592 158.75 79.6554 158.75H82.9578C83.2867 158.75 83.5194 158.949 83.5194 159.378V173.312C83.5194 173.708 83.6849 173.905 84.1462 173.905H90.1895C90.5856 173.905 90.8493 173.708 90.8493 173.312V159.378C90.8493 158.951 91.0137 158.75 91.4099 158.75H94.7123C95.0764 158.75 95.307 158.949 95.307 159.378V180.412C95.307 180.938 95.1415 181.435 94.9109 181.929L92.6687 185.595C92.4701 185.926 92.1743 186.128 91.8434 186.128H91.4163C91.0201 186.128 90.8557 185.897 90.8557 185.534V176.217C90.8557 175.821 90.624 175.656 90.261 175.756L83.922 177.539C83.6036 177.593 83.2806 177.615 82.9578 177.604Z" fill="white"/>
<path d="M103.516 177.572C102.51 177.566 101.548 177.164 100.838 176.453C100.127 175.742 99.7249 174.78 99.7188 173.775V159.378C99.7188 158.951 99.8821 158.75 100.279 158.75H103.622C103.92 158.75 104.156 158.949 104.156 159.378V173.312C104.156 173.708 104.355 173.873 104.818 173.873H110.858C111.255 173.873 111.52 173.708 111.52 173.312V159.378C111.52 158.951 111.653 158.75 112.049 158.75H115.339C115.704 158.75 115.936 158.949 115.936 159.378V176.782C115.936 177.146 115.704 177.278 115.339 177.278H112.039C111.643 177.278 111.511 177.146 111.511 176.75V176.216C111.511 175.789 111.246 175.622 110.884 175.754L104.543 177.47C104.207 177.554 103.861 177.588 103.516 177.572Z" fill="white"/>
<path d="M136.589 162.305V176.766C136.589 177.13 136.359 177.262 135.995 177.262H132.692C132.296 177.262 132.164 177.13 132.164 176.734V162.8C132.164 162.373 131.9 162.141 131.504 162.141H125.462C125 162.141 124.802 162.372 124.802 162.8V176.734C124.802 177.13 124.571 177.262 124.268 177.262H120.937C120.539 177.262 120.375 177.13 120.375 176.766V159.362C120.375 158.935 120.539 158.734 120.937 158.734H124.273C124.571 158.734 124.807 158.933 124.807 159.362V159.924C124.807 160.287 124.973 160.451 125.467 160.32L131.775 158.603C132.104 158.537 132.402 158.438 132.731 158.438C134.907 158.441 136.589 160.256 136.589 162.305Z" fill="white"/>
<path d="M140.344 173.776V165.454C140.344 163.671 141.103 162.318 142.693 161.459L146.193 159.412C146.879 158.968 147.683 158.74 148.5 158.756H151.537C151.964 158.756 152.163 158.591 152.163 158.195V151.361C152.163 150.998 152.329 150.734 152.66 150.734H156.027C156.424 150.734 156.589 150.998 156.589 151.361V176.779C156.589 177.143 156.424 177.276 156.027 177.276H152.66C152.329 177.276 152.163 177.143 152.163 176.747V176.213C152.163 175.786 151.966 175.62 151.537 175.752L145.167 177.472C144.843 177.553 144.509 177.587 144.176 177.573C142.457 177.638 140.344 176.053 140.344 173.776ZM152.163 173.312V162.849C152.163 162.385 151.966 162.155 151.504 162.155H145.396C144.932 162.155 144.767 162.385 144.767 162.849V173.312C144.767 173.708 144.932 173.874 145.396 173.874H151.504C151.966 173.874 152.163 173.704 152.163 173.312Z" fill="white"/>
<path d="M164.173 177.567C162.093 177.567 160.344 175.884 160.344 173.77V165.448C160.344 163.665 161.103 162.312 162.654 161.453L166.187 159.406C166.865 158.966 167.657 158.738 168.465 158.75H176.026C176.39 158.75 176.588 158.949 176.588 159.378V176.782C176.588 177.146 176.39 177.279 176.026 177.279H172.659C172.296 177.279 172.163 177.146 172.163 176.75V176.216C172.163 175.789 171.932 175.623 171.504 175.755L165.162 177.471C164.839 177.551 164.505 177.583 164.173 177.567ZM172.163 173.307V162.843C172.163 162.38 171.932 162.149 171.504 162.149H165.395C164.932 162.149 164.766 162.38 164.766 162.843V173.307C164.766 173.703 164.932 173.868 165.395 173.868H171.504C171.932 173.868 172.163 173.699 172.163 173.307Z" fill="white"/>
<path d="M185.443 154.049C185.443 154.445 185.212 154.576 184.882 154.576H181.575C181.148 154.576 181.016 154.445 181.016 154.049V151.345C181.016 150.982 181.146 150.719 181.575 150.719H184.885C185.215 150.719 185.447 150.982 185.447 151.345L185.443 154.049ZM185.443 176.766C185.443 177.13 185.212 177.262 184.882 177.262H181.575C181.148 177.262 181.016 177.13 181.016 176.766V159.362C181.016 158.935 181.146 158.734 181.575 158.734H184.885C185.215 158.734 185.447 158.933 185.447 159.362L185.443 176.766Z" fill="white"/>
<path d="M194.703 172.516V160.002C194.703 158.153 195.495 156.732 197.113 155.774L200.975 153.627C201.663 153.214 202.451 152.997 203.253 153H211.441C211.837 153 212.038 153.199 212.038 153.595V156.006C212.038 156.369 211.837 156.533 211.441 156.533H199.984C199.588 156.533 199.422 156.765 199.422 157.194V173.109C199.422 173.536 199.588 173.736 199.984 173.736H211.772C212.135 173.736 212.366 173.902 212.366 174.233C212.369 174.411 212.321 174.587 212.226 174.739C212.131 174.89 211.994 175.011 211.833 175.087L208.995 176.672C208.278 177.074 207.467 177.28 206.646 177.268H199.521C197.176 177.271 194.703 175.587 194.703 172.516Z" fill="white"/>
<path d="M218.94 177.572C216.859 177.572 215.109 175.889 215.109 173.775V165.453C215.109 163.67 215.87 162.318 217.421 161.458L220.954 159.411C221.631 158.97 222.424 158.74 223.233 158.75H230.792C231.153 158.75 231.354 158.949 231.354 159.378V176.782C231.354 177.146 231.153 177.278 230.792 177.278H227.422C227.059 177.278 226.928 177.146 226.928 176.75V176.216C226.928 175.789 226.697 175.622 226.267 175.755L219.928 177.471C219.605 177.552 219.273 177.586 218.94 177.572ZM226.931 173.312V162.848C226.931 162.385 226.701 162.154 226.27 162.154H220.163C219.702 162.154 219.536 162.385 219.536 162.848V173.312C219.536 173.708 219.702 173.874 220.163 173.874H226.271C226.702 173.874 226.932 173.704 226.932 173.312H226.931Z" fill="white"/>
<path d="M247.941 161.653C247.941 161.984 247.711 162.149 247.347 162.149H240.838C240.411 162.149 240.244 162.38 240.244 162.808V176.744C240.244 177.14 239.981 177.273 239.65 177.273H236.315C235.919 177.273 235.781 177.14 235.781 176.776V159.372C235.781 158.945 235.914 158.745 236.315 158.745H239.65C239.981 158.745 240.244 158.943 240.244 159.372V159.901C240.244 160.263 240.41 160.428 240.838 160.428C240.963 160.436 241.088 160.414 241.202 160.363L243.115 159.108C243.816 158.733 244.6 158.541 245.394 158.547H247.351C247.715 158.547 247.946 158.745 247.946 159.108L247.941 161.653Z" fill="white"/>
<path d="M248.594 173.765V165.444C248.594 163.661 249.354 162.308 250.943 161.448L254.443 159.401C255.13 158.955 255.935 158.725 256.754 158.741H259.793C260.22 158.741 260.421 158.575 260.421 158.179V151.345C260.421 150.982 260.585 150.719 260.914 150.719H264.284C264.678 150.719 264.843 150.982 264.843 151.345V176.769C264.843 177.133 264.678 177.265 264.284 177.265H260.914C260.585 177.265 260.421 177.133 260.421 176.737V176.203C260.421 175.776 260.222 175.609 259.793 175.742L253.42 177.458C253.096 177.539 252.762 177.573 252.429 177.558C250.708 177.627 248.594 176.043 248.594 173.765ZM260.417 173.302V162.838C260.417 162.375 260.218 162.144 259.755 162.144H253.646C253.185 162.144 253.019 162.375 253.019 162.838V173.302C253.019 173.698 253.185 173.864 253.646 173.864H259.755C260.218 173.864 260.417 173.694 260.417 173.302Z" fill="white"/>
</g>
<defs>
<clipPath id="clip0_384_1800">
<rect width="256" height="50.9408" fill="white" transform="translate(32 135.594)"/>
</clipPath>
</defs>
</svg>
