<svg width="320" height="320" viewBox="0 0 320 320" fill="none" xmlns="http://www.w3.org/2000/svg">
<path d="M314.763 162.94L311.979 161.23C302.532 151.981 289.361 147.963 271.823 148.955C257.207 149.844 245.602 155.537 236.746 160.922C236.746 160.785 236.746 160.649 236.746 160.512C236.847 155.791 237.189 151.077 237.773 146.39C238.375 141.624 238.723 136.831 238.817 132.029C238.976 127.579 238.225 123.143 236.607 118.984C236.409 118.497 236.062 118.081 235.613 117.797C235.164 117.512 234.636 117.371 234.102 117.394C229.369 117.497 220.183 120.677 217.903 122.609L216.686 125.224C216.686 130.353 215.468 144.732 214.302 146.476L213.676 148.185C211.698 166.138 211.633 184.245 213.484 202.211C213.693 203.749 216.72 206.092 219.069 206.929C221.418 207.767 229.665 205.75 234.293 204.023L236.033 203.766C236.384 203.718 236.722 203.602 237.027 203.424C237.332 203.246 237.598 203.01 237.808 202.73C238.019 202.449 238.171 202.13 238.254 201.792C238.338 201.453 238.352 201.101 238.295 200.757L238.382 196.295C241.74 182.926 255.294 167.009 271.301 164.598C280.365 163.196 287.516 165.453 293.154 171.437C293.919 172.514 295.572 182.122 289.674 193.184C285.22 201.373 276.346 208.246 264.654 212.571C253.589 216.691 241.409 218.367 226.377 217.837L212.231 208.485C200.331 200.262 185.524 190.021 172.075 185.011C169.726 184.139 165.481 180.686 162.958 178.617L161.566 177.506C153.823 171.385 139.087 161.743 127.238 153.998L120.853 149.792V148.476C121.183 148.117 128.612 143.74 128.612 143.74C139.052 137.756 143.836 134.816 144.863 133.294C144.654 133.533 146.255 132.491 146.255 132.491L172.057 118.147C196.816 104.76 224.898 89.578 239.652 74.5843L240.365 72.2933L240.679 70.2588C241.648 67.5002 241.727 64.5149 240.905 61.7105C240.775 61.2433 240.522 60.8183 240.17 60.4788C239.819 60.1394 239.382 59.8978 238.904 59.7786C227.403 58.6673 212.545 65.4376 199.026 77.8839C196.541 80.1446 193.741 82.0444 190.709 83.5258L188.639 84.6542C173.745 92.9803 140.165 113.445 122.523 124.506C124.191 102.021 127.183 79.6501 131.483 57.5048L130.996 54.8719L129.256 51.4526L127.882 49.0761L127.482 48.9735C126.175 48.3359 124.752 47.9634 123.296 47.8782C121.84 47.7931 120.382 47.997 119.008 48.4778L115.528 49.7258L110.866 51.4355C110.414 51.522 109.995 51.7265 109.652 52.0274C109.309 52.3282 109.055 52.7144 108.917 53.1451C100.531 73.0798 93.5363 105.905 91.9704 132.097C79.0596 124.138 65.6989 116.906 51.953 110.436L51.7268 110.316L50.8047 110.128C48.0905 109.769 44.7499 107.803 41.5311 105.888L35.1631 101.836L25.4719 95.6473C25.5763 95.6473 22.9143 95.0832 22.9143 95.0832C18.7212 95.7841 10.7351 101.101 8.31666 104.691C8.01478 105.155 7.86311 105.697 7.88169 106.247C7.9227 107.015 8.06901 107.774 8.31666 108.504L8.75163 110.453L9.204 111.633C13.8669 116.334 25.6459 124.182 37.2162 130.302L50.6133 137.278L71.0918 148.339C71.0918 148.425 74.5716 151.058 74.5716 151.058L76.99 152.425L77.4076 152.682L40.174 177.164L20.6351 189.935C16.9749 191.918 13.2051 193.699 9.34319 195.269C5.61499 196.516 2.47821 199.057 0.521968 202.416L0 203.527L0.539367 204.262L2.01827 205.373L4.05394 206.673L6.194 208.126L8.24706 208.434C11.7268 208.571 16.8073 206.639 26.3593 202.535C35.0587 198.706 58.9474 184.601 69.1257 178.6L73.4754 176.036C75.2153 176.172 77.251 174.685 79.0083 173.369C81.8846 171.26 84.9678 169.439 88.2123 167.932C88.2123 167.932 89.8478 167.06 91.2745 166.222C91.2745 166.684 91.2745 167.385 91.2745 167.385C91.7268 197.988 93.5363 220.23 96.9291 237.378V237.703L97.2597 238.387C98.9996 240.815 100.844 248.064 102.479 254.458L106.359 267.229C106.359 267.383 107.473 268.443 107.473 268.443C109.682 269.896 116.416 272.444 120.94 271.862L122.053 271.725L122.766 270.17C123.137 268.242 123.312 266.284 123.288 264.323C123.288 261.98 123.114 259.399 122.888 256.253L122.592 251.637C121.166 230.352 119.809 199.475 119.809 178.959C119.809 178.395 119.809 177.882 119.809 177.25C123.48 179.541 139.661 189.542 139.661 189.542C167.168 207.066 208.717 233.566 233.823 240.575C234.449 240.769 235.116 240.794 235.755 240.65C236.394 240.506 236.983 240.197 237.46 239.755L241.34 237.31L242.036 237.019C243.497 236.353 244.472 233.959 244.628 231.36C265.803 230.335 295.328 222.316 311.109 202.809C316.776 195.744 319.897 187.031 319.983 178.036C319.983 171.556 318.138 165.932 314.763 162.854" fill="#F8B500"/>
</svg>
