<svg width="1581" height="266" viewBox="0 0 1581 266" fill="none" xmlns="http://www.w3.org/2000/svg">
<path d="M568.068 59.6438C580.756 59.1771 596.717 62.7504 607.999 68.5735C624.823 77.3798 637.427 92.5496 643.003 110.702C648.002 126.57 648.24 186.599 645.592 203.742C644.296 211.954 641.673 219.9 637.826 227.269C629.131 243.729 614.211 256.027 596.393 261.419C556.633 273.487 515.434 256.155 502.984 215.056L523.886 214.978L540.21 215.018C541.364 216.627 542.623 218.309 543.956 219.77C550.819 227.26 560.367 231.731 570.514 232.203C580.818 232.741 590.903 229.111 598.502 222.134C609.492 211.871 610.842 200.384 611.309 186.363C585.961 210.393 549.034 208.882 522.569 187.479C507.829 175.371 498.507 157.9 496.66 138.914C494.867 119.764 500.817 100.694 513.181 85.9612C528.003 68.1861 545.731 61.6791 568.068 59.6438ZM610.796 126.682C607.968 104.931 587.969 89.6442 566.239 92.6204C544.718 95.5687 529.611 115.333 532.411 136.872C535.212 158.412 554.869 173.655 576.428 171.003C598.198 168.326 613.624 148.433 610.796 126.682Z" fill="black"/>
<path d="M1544.34 2.72225C1555.65 2.38917 1568.58 2.75301 1580.02 2.81014L1580.13 90.4342C1580.15 104.709 1580.91 128.868 1578.84 141.986C1577.3 152.033 1573.78 161.676 1568.49 170.354C1545.86 206.967 1495.98 213.097 1460.8 191.172C1458.74 189.887 1456.33 187.809 1454.47 186.226C1439.74 173.795 1430.61 155.961 1429.15 136.735C1427.72 117.721 1434.54 98.8514 1447.02 84.5504C1459.97 69.8532 1478.23 60.904 1497.78 59.6705C1516.99 58.3809 1530.24 64.4198 1544.27 76.7349L1544.34 2.72225ZM1543.74 126.405C1540.75 104.72 1520.75 89.5646 1499.06 92.566C1477.41 95.5627 1462.28 115.538 1465.26 137.196C1468.23 158.854 1488.2 174.003 1509.86 171.045C1531.55 168.083 1546.72 148.09 1543.74 126.405Z" fill="black"/>
<path d="M243.294 59.6633C261.73 59.5171 273.724 65.4443 287.5 77.0031L287.623 62.885L323.257 62.7805L323.27 200.824L287.666 200.729L287.518 186.174C282.271 190.958 279.549 192.947 273.626 196.913C265.895 200.633 259.886 202.763 251.224 203.627C232.294 205.477 213.407 199.714 198.734 187.612C183.792 175.15 174.361 157.303 172.491 137.937C168.45 94.0353 201.153 63.3903 243.294 59.6633ZM286.918 127.051C284.286 105.244 264.387 89.7598 242.602 92.5656C221.062 95.3406 205.789 114.966 208.391 136.527C210.994 158.089 230.496 173.516 252.078 171.088C273.905 168.63 289.549 148.857 286.918 127.051Z" fill="black"/>
<path d="M66.3075 2.44099C98.2882 -2.61136 139.328 13.7512 150.274 45.934C152.424 52.2519 153.066 57.3894 153.892 64.0113C141.663 64.0742 129.435 64.0394 117.208 63.9077C98.4645 1.05735 -17.6853 61.7359 78.894 83.4732C112.613 91.0624 155.38 100.209 158.621 141.526C159.766 155.386 155.285 169.125 146.187 179.644C131.173 197.2 109.528 202.861 87.4331 204.602C44.2399 204.937 4.51307 186.148 0 138.96C10.2035 138.287 26.6146 138.777 37.2936 138.746C39.2543 147.153 42.2046 154.739 49.6263 160.354C67.2903 173.719 102.109 174.504 117.378 156.943C119.817 154.139 122.758 145.934 121.544 142.562C113.065 119.004 71.6717 120.43 51.2695 111.873C41.2441 108.974 32.7515 105.21 24.1049 99.2945C1.6141 83.9099 -1.49015 50.8198 14.8396 29.6305C28.068 12.4634 45.0832 5.62848 66.3075 2.44099Z" fill="black"/>
<path d="M1174.27 58.2607C1214.81 55.2894 1250.11 85.6634 1253.23 126.19C1256.36 166.719 1226.11 202.135 1185.59 205.401C1144.86 208.684 1109.23 178.249 1106.09 137.512C1102.96 96.7753 1133.52 61.2468 1174.27 58.2607ZM1218.91 126.335C1215.9 104.81 1196.07 89.7602 1174.53 92.6572C1152.83 95.5767 1137.65 115.592 1140.68 137.276C1143.71 158.962 1163.8 174.042 1185.47 170.896C1206.99 167.774 1221.93 147.861 1218.91 126.335Z" fill="black"/>
<path d="M937.518 148.207C946.484 126.225 954.24 103.918 962.906 80.8373C969.761 62.5731 989.504 54.8339 1004.13 71.2158C1007.7 75.2282 1013.73 93.7044 1015.95 99.5895L1034.17 147.918C1042.9 126.119 1053.03 87.2791 1064.93 67.2614C1068.5 61.2553 1093.58 62.7542 1101.84 62.8501L1087.21 103.033C1079.96 122.746 1072.81 142.498 1065.77 162.285C1058.81 181.668 1054.71 209.553 1025.38 199.675C1012.98 195.502 1011.28 184.06 1006.86 173.063C999.555 154.937 993.823 135.457 985.563 117.681C976.907 140.668 968.222 163.549 959.585 186.722C953.175 203.924 923.701 206.643 916.914 192.339C911.182 180.273 905.508 161.366 900.889 148.331C890.577 119.951 880.41 91.5143 870.408 63.0224C911.743 61.9477 907.444 60.4566 920.854 99.5372L937.518 148.207Z" fill="black"/>
<path d="M789.771 58.6357C806.503 55.0802 832.685 65.0281 844.652 77.3268C865.712 98.978 862.798 125.441 862.749 153.107L862.633 200.754L826.827 200.75C826.672 183.608 827.011 166.341 826.914 149.195C826.769 124.734 831.339 100.602 801.303 92.5149C799.861 92.3851 798.418 92.3077 796.975 92.2825C760.636 91.8197 765.168 128.584 765.294 153.044L765.39 200.822L729.349 200.727C729.455 190.222 729.531 178.593 729.287 168.132C728.078 116.321 724.992 67.5465 789.771 58.6357Z" fill="black"/>
<path d="M406.197 58.6179C423.423 55.3317 448.848 64.4701 461.217 76.9538C482.235 98.1682 479.35 125.417 479.313 152.782L479.198 200.746L443.486 200.747C443.334 181.097 447.097 122.466 439.549 107.943C435.122 99.427 429.196 95.8957 420.427 93.0733C401.545 88.4741 384.386 100.928 382.482 120.203C381.508 130.067 381.898 140.162 381.919 150.075L382.091 200.764L346.243 200.718C346.367 181.814 344.793 122.303 348.039 107.388C349.967 98.4035 353.849 89.9545 359.41 82.6394C371.481 66.8452 387.198 61.1306 406.197 58.6179Z" fill="black"/>
<path d="M1375.1 2.72054L1410.78 2.64307C1411.35 49.5075 1410.6 96.9045 1410.95 143.817C1411 150.106 1411.29 196.416 1410.55 200.06L1408.79 200.831L1375.1 200.737C1376.01 135.789 1375.46 67.7969 1375.1 2.72054Z" fill="black"/>
<path d="M1327.93 61.488C1335.19 60.8587 1348.72 61.2266 1356.49 61.2257L1356.53 94.5181C1350.01 94.5994 1337.51 94.0901 1331.67 95.2443C1305.02 100.507 1308.12 129.277 1308.21 149.583L1308.45 185.577C1308.48 189.388 1309.15 197.492 1307.26 200.316L1304.31 200.743L1272.09 200.744C1272.13 189.235 1272.28 177.074 1272.02 165.573C1270.96 118.636 1267.91 69.6378 1327.93 61.488Z" fill="black"/>
<path d="M669.594 62.9006L705.15 62.8726C705.763 108.453 705.29 154.977 705.277 200.628C695.391 201.236 679.912 200.749 669.596 200.76L669.594 62.9006Z" fill="black"/>
<path d="M682.336 0.583818C694.151 -2.17764 705.978 5.12009 708.807 16.9192C711.637 28.7174 704.407 40.5863 692.625 43.4843C680.746 46.4055 668.759 39.1029 665.906 27.2079C663.054 15.3129 670.424 3.36852 682.336 0.583818Z" fill="black"/>
</svg>
