<svg width="320" height="320" viewBox="0 0 320 320" fill="none" xmlns="http://www.w3.org/2000/svg">
<rect width="320" height="320" rx="80" fill="#2C2A26"/>
<path fill-rule="evenodd" clip-rule="evenodd" d="M230.709 177.58H288V181.783H230.709V177.58ZM55.2412 168.865H65.4137C68.098 179.976 81.3203 185.124 86.1707 185.833L83.6411 189.555C78.6828 188.954 67.3939 185.372 60.3275 177.683C53.2589 185.372 41.9676 188.954 37.0115 189.555L34.4818 185.833C39.3302 185.124 52.5458 179.976 55.2412 168.865ZM165.673 168.467V168.549L165.624 168.485L165.673 168.467ZM167.839 133.286H201.049C201.097 137.234 200.688 140.814 199.822 144.025C198.955 147.235 197.74 150.137 196.176 152.729C194.611 155.322 192.758 157.635 190.617 159.669C188.475 161.703 186.176 163.487 183.722 165.023C181.267 166.559 178.728 167.885 176.105 169.001C173.482 170.118 170.895 171.075 168.344 171.873L165.673 168.762C168.561 167.566 171.136 166.299 173.398 164.963C175.66 163.627 177.657 162.231 179.39 160.776C181.123 159.32 182.639 157.804 183.938 156.229C185.238 154.653 186.369 153.048 187.332 151.413H167.767V147.405H189.136C189.907 145.57 190.436 143.795 190.725 142.08C191.014 140.365 191.182 138.77 191.23 137.294H167.839V133.286ZM235.774 133.272H282.305V137.475H244.841V157.573C244.841 158.735 245.773 159.665 246.937 159.665H283.027V163.87H239.954C237.649 163.87 235.774 161.988 235.774 159.691V133.272ZM36.9038 132.07H83.6679V146.232H45.9614V149.906C45.9614 151.075 46.91 152.024 48.0783 152.024H84.4598V156.205H65.1677V161.966H89.3714V166.171H32V161.966H56.0605V156.205H41.1064C38.7874 156.205 36.9038 154.315 36.9038 152.013V142.011H74.599V136.277H36.9038V132.07ZM144.9 131.223H153.677V189.706H144.9V131.223ZM209.082 131.153H218.223V149.138H227.736V153.365H218.223V189.694H209.082V131.153ZM130.9 131.078H139.682V189.561H130.898L130.9 171.421C129.351 172.397 126.953 172.916 123.991 172.916H104.51C102.184 172.916 100.303 171.034 100.303 168.719V133.265H125.429V137.473H109.385V166.592C109.385 167.761 110.334 168.706 111.506 168.706H123.991C126.832 168.706 128.754 168.245 130.9 167.403V155.013H119.914V149.806H130.9V131.078Z" fill="white"/>
</svg>
