<svg width="320" height="320" viewBox="0 0 320 320" fill="none" xmlns="http://www.w3.org/2000/svg">
<g clip-path="url(#clip0_384_1715)">
<path d="M223.8 0L159.991 31.7013L96.271 0L159.991 119.983L223.8 0Z" fill="#FDB913"/>
<path d="M246.119 92.7041L245.127 91.9016L290.641 72.9967V9.90625L211.826 43.0343C211.826 43.0343 168.97 123.291 168.024 125.119C184.872 127.086 200.323 135.349 211.216 148.216C222.11 161.083 227.623 177.583 226.627 194.339C225.631 211.095 218.202 226.841 205.859 238.357C193.516 249.872 177.193 256.286 160.228 256.286C143.264 256.286 126.94 249.872 114.597 238.357C102.254 226.841 94.8251 211.095 93.8292 194.339C92.8333 177.583 98.3461 161.083 109.24 148.216C120.133 135.349 135.584 127.086 152.432 125.119L108.721 43.0343L29.4992 9.90625V73.2197L74.9682 92.1245L73.9768 92.927C53.8976 110.263 39.6441 133.25 33.121 158.815C26.598 184.38 28.116 211.306 37.4723 235.995C46.8287 260.684 63.5776 281.959 85.4809 296.978C107.384 311.997 133.399 320.044 160.048 320.044C186.697 320.044 212.711 311.997 234.615 296.978C256.518 281.959 273.267 260.684 282.623 235.995C291.98 211.306 293.498 184.38 286.975 158.815C280.451 133.25 266.198 110.263 246.119 92.927V92.7041Z" fill="#FDB913"/>
</g>
<defs>
<clipPath id="clip0_384_1715">
<rect width="261.818" height="320" fill="white" transform="translate(29.0908)"/>
</clipPath>
</defs>
</svg>
