<svg width="320" height="320" viewBox="0 0 320 320" fill="none" xmlns="http://www.w3.org/2000/svg">
<g clip-path="url(#clip0_384_1819)">
<path d="M123.887 295.627C106.239 293.89 85.1471 288.336 66.7499 272.392C49.8198 257.826 39.3563 237.75 34.2667 220.04C29.0724 201.955 26.8869 180.861 35.4792 182.538C38.1288 183.017 42.7094 194.649 47.6642 203.093C52.7986 211.806 56.9601 216.656 60.8521 219.62C62.6334 220.953 68.666 207.554 77.4529 199.904C82.5574 195.652 88.081 194.23 89.069 206.82C90.1169 222.21 87.3476 240.549 91.8683 240.549C95.9998 240.549 105.52 237.391 126.342 235.609C134.201 234.95 138.692 236.433 131.207 246.927C127.465 252.197 122.495 259.607 110.67 268.126C128.378 284.713 149.605 282.692 150.009 289.743C150.248 293.815 142.33 296.061 131.941 296.061C129.381 296.061 126.672 295.911 123.887 295.612M183.48 146.578C167.268 143.195 163.945 128.479 163.945 128.479C162.613 123.284 162.298 116.727 163.391 108.358C165.577 90.8723 170.307 82.6982 175.666 69.1348C182.896 50.9454 165.352 40.3012 168.211 33.6392C172.178 24.5969 184.692 36.0944 198.719 36.9477C210.769 37.5915 218.014 37.0226 227.37 38.2801C239.824 39.9119 254.748 44.1486 261.38 51.9334C267.442 59.0744 258.131 67.7425 247.009 62.3231C238.836 58.3409 228.567 60.7661 234.585 69.2845C241.83 77.3687 245.303 77.5932 252.743 79.5245C273.116 84.9139 273.535 104.466 259.703 114.526C244.06 126.023 228.088 121.248 221.771 98.7319C218.568 87.4739 210.664 81.7701 202.491 84.9738C194.437 88.1476 199.213 102.939 205.38 116.667C216.023 143.869 194.497 146.728 186.234 146.728C184.932 146.728 183.974 146.668 183.495 146.608M171.789 300.747C171.654 297.154 176.908 296.241 176.908 296.241C224.256 286.899 210.41 255.85 193.674 240.026C186.623 233.393 120.759 176.52 120.759 176.52C57.948 122.416 62.9777 80.2281 62.9777 80.2281C66.0763 28.2497 111.493 15.36 145.922 18.3691C149.949 18.7134 152.209 21.1237 151.446 24.537C150.727 28.2048 145.383 28.4444 145.383 28.4444C134.426 29.0881 124.636 30.181 117.196 35.2261C89.4882 53.8946 97.6015 85.6175 134.59 120.948C139.261 125.365 144.201 130.081 149.305 134.856C149.305 134.856 156.67 141.398 171.505 155.441C199.961 181.64 215.514 195.757 215.514 195.757C265.661 237.51 248.491 275.701 229.376 288.935C214.736 299.07 198.569 303.816 177.328 304.969L176.789 304.998C174.858 304.998 171.924 303.816 171.804 300.747M152.703 0.164677C64.4746 4.14689 -3.82995 78.9705 0.166828 167.238C4.16361 255.49 78.9798 323.817 167.223 319.834C255.437 315.852 323.816 241.059 319.835 152.791C315.973 66.9491 245.153 0.0149707 160.053 0C157.628 0 155.173 0.0598824 152.718 0.164677" fill="#0046FF"/>
</g>
<defs>
<clipPath id="clip0_384_1819">
<rect width="320" height="320" fill="white"/>
</clipPath>
</defs>
</svg>
