<svg width="320" height="320" viewBox="0 0 320 320" fill="none" xmlns="http://www.w3.org/2000/svg">
<g clip-path="url(#clip0_384_1723)">
<path d="M320 160C320 191.635 310.622 222.56 293.052 248.866C275.481 275.173 250.507 295.68 221.286 307.798C192.064 319.915 159.905 323.097 128.875 316.943C97.8448 310.789 69.3352 295.575 46.9491 273.223C24.5631 250.871 9.30538 222.385 3.10425 191.364C-3.09688 160.343 0.0367161 128.18 12.1094 98.9398C24.182 69.6994 44.6517 44.6939 70.9314 27.0836C97.2112 9.47332 128.122 0.0483724 159.756 0.000185636C180.788 -0.0318509 201.62 4.083 221.06 12.1094C240.5 20.1358 258.168 31.9164 273.051 46.777C287.934 61.6375 299.741 79.2864 307.797 98.7144C315.853 118.142 320 138.968 320 160Z" fill="white"/>
<path d="M159.757 312.57C189.937 312.595 219.447 303.667 244.552 286.918C269.658 270.168 289.231 246.349 300.797 218.473C312.363 190.597 315.402 159.918 309.529 130.314C303.656 100.711 289.135 73.5155 267.803 52.1665C246.471 30.8174 219.287 16.2748 189.688 10.3781C160.09 4.48137 129.408 7.49539 101.523 19.0392C73.6379 30.583 49.803 50.1377 33.0334 75.2298C16.2638 100.322 7.31256 129.824 7.31255 160.004C7.29654 180.034 11.2279 199.87 18.8818 218.379C26.5357 236.889 37.762 253.709 51.9194 267.878C66.0768 282.046 82.8879 293.286 101.391 300.955C119.895 308.623 139.728 312.57 159.757 312.57Z" fill="#0083CA"/>
<mask id="mask0_384_1723" style="mask-type:luminance" maskUnits="userSpaceOnUse" x="7" y="7" width="306" height="306">
<path d="M159.757 312.561C189.908 312.561 219.382 303.62 244.451 286.87C269.521 270.119 289.06 246.31 300.598 218.455C312.136 190.599 315.155 159.948 309.273 130.376C303.391 100.805 288.872 73.6416 267.552 52.3218C246.232 31.0021 219.069 16.4833 189.498 10.6011C159.926 4.71904 129.275 7.73786 101.419 19.276C73.5635 30.8142 49.7552 50.3534 33.0043 75.4228C16.2535 100.492 7.3125 129.966 7.3125 160.117C7.34477 200.538 23.4163 239.294 51.9982 267.876C80.5801 296.458 119.336 312.529 159.757 312.561Z" fill="white"/>
</mask>
<g mask="url(#mask0_384_1723)">
<path d="M161.459 233.604C228.603 233.604 285.877 252.37 310.614 278.813C318.834 259.305 322.981 238.322 322.8 217.153C321.643 175.019 304.093 134.998 273.882 105.605C243.67 76.2114 203.183 59.7656 161.033 59.7656C118.882 59.7656 78.3951 76.2114 48.1841 105.605C17.9731 134.998 0.422171 175.019 -0.734375 217.153C-0.637342 238.12 3.71585 258.848 12.061 278.082C37.1638 252.37 94.5592 233.604 161.459 233.604Z" fill="#0083CA"/>
<path d="M161.456 233.723C228.356 233.723 285.508 252.367 310.245 278.567C318.391 259.292 322.537 238.563 322.431 217.637C322.431 174.847 305.433 133.81 275.175 103.553C244.918 73.2955 203.88 56.2969 161.09 56.2969C118.3 56.2969 77.2626 73.2955 47.0054 103.553C16.7482 133.81 -0.25 174.847 -0.25 217.637C-0.232271 238.612 4.12426 259.357 12.5453 278.567C37.8919 252.367 94.6778 233.723 161.456 233.723Z" fill="#0085CB"/>
<path d="M161.458 233.966C228.114 233.966 285.266 252.367 309.759 278.444C318.008 259.201 322.158 238.451 321.945 217.515C320.792 175.605 303.332 135.798 273.281 106.562C243.229 77.3265 202.958 60.9688 161.031 60.9688C119.105 60.9688 78.8327 77.3265 48.7813 106.562C18.7299 135.798 1.27065 175.605 0.117212 217.515C-0.0962656 238.451 4.05383 259.201 12.303 278.444C37.8933 252.367 94.8013 233.966 161.458 233.966Z" fill="#0086CD"/>
<path d="M161.452 234.096C227.987 234.096 284.895 252.374 309.388 278.208C317.548 259.194 321.697 238.701 321.574 218.01C319.957 176.529 302.341 137.284 272.421 108.507C242.501 79.7301 202.6 63.6563 161.087 63.6562C119.573 63.6563 79.673 79.7301 49.7525 108.507C19.8321 137.284 2.21622 176.529 0.599402 218.01C0.418766 238.667 4.56996 259.133 12.7852 278.086C37.888 252.374 95.0397 234.096 161.452 234.096Z" fill="#0088CE"/>
<path d="M161.462 234.334C227.753 234.334 284.538 252.369 309.032 278.081C317.18 259.235 321.33 238.903 321.218 218.371C319.603 176.985 302.026 137.831 272.174 109.121C242.322 80.4114 202.513 64.375 161.096 64.375C119.678 64.375 79.8696 80.4114 50.0176 109.121C20.1655 137.831 2.58908 176.985 0.974153 218.371C0.797599 238.909 4.9497 259.254 13.16 278.081C37.8972 252.369 95.1708 234.334 161.462 234.334Z" fill="#008ACF"/>
<path d="M161.333 234.458C227.624 234.458 284.166 252.371 308.538 277.84C316.751 259.186 320.905 238.998 320.723 218.616C320.723 134.656 249.193 65.5625 160.967 65.5625C72.7421 65.5625 1.33301 134.656 1.33301 218.738C1.16523 239.079 5.31878 259.224 13.5188 277.84C38.6216 252.371 95.2858 234.458 161.333 234.458Z" fill="#008CD0"/>
<path d="M161.343 234.583C227.39 234.583 283.933 252.496 308.182 277.599C316.326 259.137 320.478 239.163 320.368 218.985C320.368 135.634 248.959 66.9062 160.978 66.9062C72.9961 66.9062 1.83085 135.756 1.83085 218.985C1.70618 239.165 5.85936 259.141 14.0167 277.599C38.8758 252.496 95.418 234.583 161.343 234.583Z" fill="#008ED2"/>
<path d="M161.338 234.833C227.263 234.833 283.196 252.503 307.568 277.484C315.724 259.155 319.879 239.297 319.754 219.236C319.754 136.616 248.589 68.375 161.338 68.375C74.0876 68.375 2.92236 136.737 2.92236 219.357C2.86996 239.372 7.0215 259.175 15.1082 277.484C39.2361 252.503 95.6565 234.833 161.338 234.833Z" fill="#008FD3"/>
<path d="M161.338 234.943C227.02 234.943 283.196 252.491 307.568 277.228C315.722 259.113 319.878 239.454 319.754 219.589C319.754 137.7 248.711 69.7031 161.338 69.7031C73.9658 69.7031 2.92238 137.7 2.92238 219.589C2.86909 239.447 7.02215 259.091 15.1082 277.228C39.4799 252.491 95.7784 234.943 161.338 234.943Z" fill="#0091D4"/>
<path d="M161.338 235.19C226.776 235.19 283.196 252.494 306.959 277.109C315.102 259.12 319.259 239.582 319.145 219.836C319.145 138.678 248.345 71.0469 160.729 71.0469C73.1127 71.0469 2.31301 138.678 2.31301 219.836C2.25957 239.576 6.41379 259.101 14.4988 277.109C39.8454 252.494 95.9004 235.19 161.338 235.19Z" fill="#0093D5"/>
<path d="M161.335 235.299C226.651 235.299 282.584 252.482 306.59 276.853C314.673 259.059 318.829 239.733 318.776 220.189C318.776 139.641 248.098 72.375 161.091 72.375C74.0842 72.375 3.40675 139.763 3.40675 220.189C3.35359 239.733 7.50974 259.059 15.5926 276.853C40.0861 252.482 96.0189 235.299 161.335 235.299Z" fill="#0095D7"/>
<path d="M161.21 235.422C226.404 235.422 282.216 252.482 306.1 276.61C314.24 259.007 318.401 239.827 318.286 220.433C318.286 140.616 247.852 74.2031 160.967 74.2031C74.0816 74.2031 3.89104 141.225 3.89104 220.433C3.84284 239.82 8.00036 258.986 16.0769 276.61C40.4485 252.482 96.2597 235.422 161.21 235.422Z" fill="#0097D8"/>
<path d="M161.223 235.675C226.295 235.675 281.862 252.491 305.747 276.497C313.817 259.044 317.976 240.037 317.932 220.808C317.932 141.722 247.742 74.5781 161.101 74.5781C74.4593 74.5781 4.39097 141.235 4.39097 220.808C4.34727 240.037 8.50622 259.044 16.5768 276.497C40.7047 252.491 96.3939 235.675 161.223 235.675Z" fill="#0099D9"/>
<path d="M161.217 235.797C226.045 235.797 281.491 252.613 305.375 276.254C313.455 258.976 317.617 240.126 317.561 221.052C317.561 142.697 247.492 76.4062 161.095 76.4062C74.697 76.4062 4.75055 142.697 4.75055 221.052C4.69485 240.126 8.85606 258.976 16.9364 276.254C41.0643 252.613 96.5098 235.797 161.217 235.797Z" fill="#009BDA"/>
<path d="M161.21 236.044C225.795 236.044 281.24 252.617 304.881 276.135C312.947 258.982 317.109 240.254 317.067 221.299C317.067 143.675 247.242 77.75 161.088 77.75C74.9342 77.75 5.10952 143.675 5.10952 221.421C5.08143 240.335 9.24304 259.021 17.2953 276.135C41.3014 252.617 96.6251 236.044 161.21 236.044Z" fill="#009DDC"/>
<path d="M161.207 236.169C225.67 236.169 280.872 252.62 304.512 275.895C312.575 258.957 316.739 240.427 316.698 221.668C316.698 144.653 246.995 79.0938 161.085 79.0938C75.1746 79.0938 5.59375 144.775 5.59375 221.668C5.60537 240.421 9.76679 258.939 17.7796 275.895C41.6638 252.62 96.8655 236.169 161.207 236.169Z" fill="#009FDD"/>
<path d="M161.203 236.279C225.423 236.279 280.503 252.608 304.143 275.639C312.223 258.88 316.39 240.504 316.329 221.9C316.329 145.738 246.87 80.4219 161.203 80.4219C75.5371 80.4219 6.07813 145.738 6.07813 221.9C6.07645 240.498 10.2403 258.86 18.264 275.639C41.9045 252.608 96.9842 236.279 161.203 236.279Z" fill="#00A1DE"/>
<path d="M161.088 236.529C225.307 236.529 280.144 252.614 303.662 275.524C311.702 258.924 315.869 240.716 315.848 222.272C315.848 146.719 246.511 81.8906 160.966 81.8906C75.4218 81.8906 6.32812 146.719 6.32812 222.272C6.35381 240.711 10.5181 258.908 18.514 275.524C42.1545 252.614 97.1123 236.529 161.088 236.529Z" fill="#00A3DF"/>
<path d="M161.085 236.654C225.06 236.654 279.775 252.617 303.294 275.283C311.355 258.864 315.525 240.809 315.479 222.518C315.479 147.697 246.386 83.2344 161.085 83.2344C75.784 83.2344 6.8125 147.697 6.8125 222.518C6.82765 240.802 10.9943 258.844 18.9983 275.283C42.517 252.617 97.3529 236.654 161.085 236.654Z" fill="#00A5E1"/>
<path d="M161.094 236.885C224.826 236.885 279.541 252.605 302.937 275.149C310.93 258.88 315.098 240.998 315.123 222.872C315.123 148.66 246.151 84.5625 161.094 84.5625C76.0371 84.5625 7.1875 148.782 7.1875 222.872C7.21258 240.998 11.3807 258.88 19.3733 275.149C42.7701 252.605 97.4842 236.885 161.094 236.885Z" fill="#00A7E2"/>
<path d="M161.094 237.01C224.704 237.01 279.175 252.73 302.572 274.908C310.562 258.812 314.732 241.089 314.758 223.118C314.758 150.003 246.03 85.9062 161.216 85.9062C76.403 85.9062 7.79688 149.76 7.79688 223.118C7.82277 241.089 11.9928 258.812 19.9827 274.908C43.1358 253.339 97.6063 237.01 161.094 237.01Z" fill="#00A9E3"/>
<path d="M161.088 237.136C224.455 237.136 278.803 252.734 302.078 274.668C310.069 258.789 314.242 241.264 314.264 223.487C314.264 150.373 245.78 87.25 161.21 87.25C76.6406 87.25 8.15625 150.738 8.15625 223.487C8.17883 241.264 12.3515 258.789 20.3421 274.668C43.3733 253.343 97.7219 237.136 161.088 237.136Z" fill="#00ABE5"/>
<path d="M161.098 237.383C224.342 237.383 278.447 252.737 301.722 274.549C309.709 258.799 313.883 241.394 313.908 223.735C313.908 151.716 245.546 88.5938 161.22 88.5938C76.8937 88.5938 8.53125 151.716 8.53125 223.735C8.55668 241.394 12.7308 258.799 20.7171 274.549C43.7483 253.346 97.9751 237.383 161.098 237.383Z" fill="#00ADE6"/>
<path d="M160.973 237.502C224.096 237.502 278.2 252.734 301.354 274.059C309.287 258.464 313.46 241.229 313.539 223.732C313.539 152.445 245.421 89.6875 161.217 89.6875C77.0124 89.6875 9.01562 152.566 9.01562 223.732C9.09909 241.228 13.2721 258.463 21.2015 274.059C43.989 253.343 98.0941 237.502 160.973 237.502Z" fill="#00AFE7"/>
<path d="M160.964 237.746C223.964 237.746 277.826 252.734 300.857 274.303C308.837 258.943 313.016 241.894 313.043 224.585C313.043 154.029 245.046 91.5156 161.085 91.5156C77.125 91.5156 9.25 154.029 9.25 224.585C9.33326 241.887 13.5089 258.924 21.4358 274.303C44.3452 253.343 98.816 237.746 160.964 237.746Z" fill="#00B2E9"/>
<path d="M160.964 237.861C223.721 237.861 277.46 252.728 300.491 274.419C308.419 259.171 312.596 242.252 312.677 225.066C312.677 155.241 244.924 93.0938 161.207 93.0938C77.4905 93.0938 9.85938 155.241 9.85938 225.066C9.94006 242.252 14.1175 259.171 22.0452 274.419C44.589 253.337 98.8159 237.861 160.964 237.861Z" fill="#00B4EA"/>
<path d="M160.973 237.989C223.486 237.989 277.104 252.734 300.135 273.694C308.044 258.657 312.223 241.94 312.321 224.951C312.321 155.735 244.69 93.9531 161.217 93.9531C77.7437 93.9531 10.2344 155.735 10.2344 224.951C10.3319 241.94 14.5112 258.657 22.4202 273.694C44.964 253.344 98.8253 237.989 160.973 237.989Z" fill="#00B6EB"/>
<path d="M160.967 238.23C223.358 238.23 276.732 252.853 299.642 273.569C307.666 258.577 311.853 241.831 311.827 224.826C311.827 156.342 244.318 95.0469 161.21 95.0469C78.1031 95.0469 10.5938 155.976 10.5938 224.826C10.6284 241.823 14.8114 258.555 22.7796 273.569C45.2015 253.341 98.8191 238.23 160.967 238.23Z" fill="#00B8ED"/>
<path d="M160.854 238.349C223.124 238.349 276.498 252.851 299.286 273.323C307.192 258.636 311.376 242.234 311.471 225.554C311.471 157.801 244.083 96.75 161.098 96.75C78.1124 96.75 10.9688 157.679 10.9688 225.554C11.0636 242.234 15.2478 258.636 23.1546 273.323C45.4546 253.338 98.8284 238.349 160.854 238.349Z" fill="#01BBEE"/>
<path d="M160.855 238.596C223.002 238.596 276.133 252.854 298.92 273.082C306.825 258.57 311.011 242.326 311.106 225.801C311.106 158.779 243.962 98.0938 161.22 98.0938C78.4783 98.0938 11.5781 159.023 11.5781 225.801C11.6729 242.326 15.8595 258.57 23.764 273.082C45.8203 253.341 98.8287 238.596 160.855 238.596Z" fill="#11BDF0"/>
<path d="M160.848 238.721C222.752 238.721 275.761 252.857 298.426 272.964C306.315 258.621 310.503 242.538 310.612 226.17C310.612 159.757 243.712 99.4375 161.214 99.4375C78.7159 99.4375 11.9375 159.758 11.9375 226.048C12.0316 242.457 16.2202 258.583 24.1233 272.964C46.0578 253.344 98.8225 238.721 160.848 238.721Z" fill="#1AC0F1"/>
<path d="M160.842 238.847C222.502 238.847 275.389 252.86 298.055 272.723C305.942 258.556 310.133 242.631 310.241 226.417C310.241 160.735 243.462 100.781 161.208 100.781C78.9534 100.781 12.2969 160.735 12.2969 226.417C12.3888 242.633 16.5807 258.562 24.4827 272.723C46.4172 253.348 98.8163 238.847 160.842 238.847Z" fill="#1FC4F4"/>
<path d="M160.848 239.335C222.508 239.335 275.273 253.226 297.817 272.967C305.704 258.889 309.896 243.042 310.003 226.905C310.003 161.711 243.346 102 161.214 102C79.0813 102 12.5469 161.711 12.5469 226.905C12.7363 243.03 16.9233 258.857 24.7327 272.967C46.5453 253.348 98.8223 239.335 160.848 239.335Z" fill="#32C5F4"/>
<path d="M160.852 239.7C222.39 239.7 275.155 253.47 297.699 273.089C305.526 259.119 309.716 243.405 309.884 227.392C309.884 162.564 243.35 103.219 161.217 103.219C79.0847 103.219 12.6719 162.564 12.6719 227.392C12.8398 243.405 17.0301 259.119 24.8577 273.089C46.6703 253.348 99.435 239.7 160.852 239.7Z" fill="#3FC7F4"/>
<path d="M160.842 240.053C221.771 240.053 275.023 253.701 297.445 273.199C305.322 259.381 309.518 243.772 309.631 227.867C309.631 163.404 243.218 104.547 161.208 104.547C79.197 104.547 12.9062 163.404 12.9062 227.867C13.0725 243.765 17.265 259.361 25.0921 273.199C46.9047 253.336 99.5473 240.053 160.842 240.053Z" fill="#4AC8F5"/>
<path d="M160.836 240.435C221.765 240.435 274.773 254.083 297.317 273.458C305.129 259.702 309.322 244.189 309.503 228.371C309.503 164.395 243.212 105.781 161.323 105.781C79.4346 105.781 13.2656 164.395 13.2656 228.249C13.4312 244.108 17.6244 259.664 25.4515 273.458C47.0204 254.083 99.663 240.435 160.836 240.435Z" fill="#54CAF5"/>
<path d="M160.858 241.157C221.787 241.157 274.673 254.683 297.095 273.936C304.974 260.297 309.173 244.844 309.281 229.093C309.281 165.604 242.99 107.234 161.223 107.234C79.4565 107.234 13.5312 165.239 13.5312 228.971C13.7532 244.706 17.9447 260.131 25.7171 273.814C47.1641 254.317 99.685 241.157 160.858 241.157Z" fill="#5CCCF5"/>
<path d="M160.858 241.166C221.787 241.166 274.552 254.692 296.974 273.824C304.781 260.243 308.977 244.888 309.16 229.224C309.16 166.101 242.99 108.219 161.345 108.219C79.7004 108.219 13.5312 166.101 13.5312 228.98C13.7143 244.644 17.9098 260 25.7171 273.581C47.286 254.692 99.8069 241.166 160.858 241.166Z" fill="#64CDF6"/>
<path d="M160.852 241.154C221.781 241.154 274.424 254.436 296.724 273.446C304.532 259.999 308.729 244.76 308.909 229.212C308.909 166.576 242.862 108.938 161.339 108.938C79.816 108.938 13.8906 166.576 13.8906 229.212C13.9231 244.701 17.9078 259.926 25.4673 273.446C47.4018 254.924 99.9225 241.154 160.852 241.154Z" fill="#6CCFF6"/>
<path d="M160.858 242.007C221.787 242.007 274.186 255.29 296.608 274.056C304.412 260.74 308.612 245.62 308.794 230.187C308.794 167.917 242.747 110.766 161.345 110.766C79.9441 110.766 13.5312 168.039 13.5312 230.187C13.6964 245.623 17.8974 260.747 25.7171 274.056C47.6516 255.29 99.9287 242.007 160.858 242.007Z" fill="#73D1F6"/>
<path d="M160.858 242.373C221.787 242.373 274.064 255.534 296.364 274.3C304.164 261.071 308.365 246.031 308.55 230.675C308.55 168.771 242.625 111.984 161.345 111.984C80.0659 111.984 13.5312 168.771 13.5312 230.675C13.7162 246.031 17.9174 261.071 25.7171 274.3C47.7734 255.534 100.051 242.373 160.858 242.373Z" fill="#7AD2F7"/>
<path d="M160.855 242.754C221.784 242.754 273.94 255.915 296.24 274.437C303.776 261.262 307.764 246.356 307.816 231.177C307.816 170.248 242.013 113.219 160.855 113.219C79.6973 113.219 14.625 169.761 14.625 231.177C14.6769 246.356 18.6659 261.262 26.2017 274.437C47.8925 255.915 100.17 242.754 160.855 242.754Z" fill="#81D4F7"/>
<path d="M160.852 243.104C221.781 243.104 273.814 256.143 295.993 274.543C303.786 261.579 307.992 246.775 308.178 231.649C308.178 170.72 242.375 114.422 161.339 114.422C80.3036 114.422 15.1094 170.598 15.1094 231.528C15.2939 246.73 19.4981 261.613 27.2952 274.665C48.0111 256.143 100.166 243.104 160.852 243.104Z" fill="#88D6F8"/>
<path d="M160.849 243.592C221.778 243.592 273.568 256.509 295.868 274.788C303.401 261.788 307.392 247.04 307.444 232.015C307.444 171.086 241.763 115.641 161.214 115.641C80.666 115.641 14.9844 171.452 14.9844 232.015C15.0367 247.04 19.0285 261.788 26.5611 274.788C48.2518 256.509 100.285 243.592 160.849 243.592Z" fill="#8ED8F8"/>
<path d="M160.843 243.961C221.772 243.961 273.44 256.146 295.618 274.913C303.361 262.104 307.566 247.471 307.804 232.506C307.804 172.43 242.244 116.984 161.574 116.984C80.9035 116.984 15.3438 172.43 15.3438 232.506C15.5226 247.48 19.732 262.128 27.5296 274.913C48.3673 256.756 100.401 243.961 160.843 243.961Z" fill="#94DAF8"/>
<path d="M160.855 244.327C221.784 244.327 273.33 256.512 294.899 275.157C302.671 262.451 306.88 247.887 307.085 232.993C307.085 173.283 241.525 118.203 160.855 118.203C80.1848 118.203 14.625 173.283 14.625 232.993C14.6982 247.823 18.6922 262.369 26.2017 275.157C48.5018 257 100.413 244.327 160.855 244.327Z" fill="#9BDCF9"/>
<path d="M160.855 244.692C221.784 244.692 273.208 256.878 294.899 275.278C302.405 262.623 306.402 248.195 306.476 233.481C306.476 174.136 241.038 119.422 160.246 119.422C79.4535 119.422 14.0156 174.258 14.0156 233.481C14.0894 248.195 18.0853 262.623 25.5919 275.278C48.6232 257.365 100.535 244.692 160.855 244.692Z" fill="#A1DDF9"/>
<path d="M160.855 245.058C221.784 245.058 272.964 257.244 294.899 275.401C302.403 262.878 306.402 248.568 306.476 233.969C306.476 175.112 241.159 120.641 160.246 120.641C79.3317 120.641 14.0156 175.112 14.0156 233.969C14.1032 248.604 18.0997 262.95 25.5919 275.523C48.8669 257.61 100.657 245.058 160.855 245.058Z" fill="#A7DFF9"/>
<path d="M160.843 245.424C221.772 245.424 272.83 257.609 294.887 275.644C302.591 263.266 306.801 249.034 307.073 234.457C307.073 175.965 241.878 121.859 160.843 121.859C79.8068 121.859 15.3438 175.965 15.3438 234.457C15.6027 249.036 19.8144 263.271 27.5296 275.644C48.9766 257.975 100.645 245.546 160.843 245.424Z" fill="#ADE1FA"/>
<path d="M160.839 245.899C221.037 245.899 272.705 258.084 294.884 275.754C302.383 263.452 306.386 249.338 306.46 234.931C306.46 176.805 241.388 123.188 161.083 123.188C80.7784 123.188 15.8281 176.927 15.8281 234.81C15.8436 249.247 19.8045 263.405 27.2828 275.754C49.0955 258.206 100.763 245.899 160.839 245.899Z" fill="#B3E3FA"/>
<path d="M160.846 246.28C220.922 246.28 272.59 258.466 294.89 275.892C302.346 263.712 306.309 249.715 306.345 235.435C306.345 177.796 241.394 124.422 161.211 124.422C81.0286 124.422 16.0781 177.796 16.0781 235.313C16.1562 249.681 20.1593 263.755 27.6548 276.013C49.2237 258.587 100.892 246.28 160.846 246.28Z" fill="#B8E5FA"/>
<path d="M160.858 246.643C220.934 246.643 272.359 258.829 294.902 276.133C302.397 264.008 306.403 250.051 306.479 235.797C306.479 178.646 241.529 126.125 161.468 126.125C81.4069 126.125 16.5781 179.133 16.5781 235.797C16.6735 250.032 20.6326 263.973 28.0328 276.133C50.0892 258.829 100.904 246.643 160.858 246.643Z" fill="#BEE7FB"/>
<path d="M160.849 247.005C220.803 247.005 272.227 259.191 294.162 276.251C301.561 264.225 305.523 250.401 305.617 236.282C305.617 179.496 240.788 126.609 160.849 126.609C80.9098 126.609 16.2031 179.374 16.2031 236.282C16.2403 250.41 20.2064 264.248 27.6578 276.251C50.0798 259.191 101.016 247.005 160.849 247.005Z" fill="#C4E9FB"/>
<path d="M160.836 247.362C220.669 247.362 272.093 259.548 293.906 276.486C301.343 264.566 305.31 250.81 305.36 236.76C305.36 180.462 240.653 128.062 160.836 128.062C81.0191 128.062 16.3125 180.462 16.3125 236.76C16.4261 250.801 20.3881 264.541 27.7672 276.486C50.0673 259.426 101.126 247.484 160.836 247.362Z" fill="#CAEBFC"/>
<path d="M160.858 247.849C220.691 247.849 271.993 260.035 293.806 276.608C301.184 264.797 305.149 251.173 305.26 237.248C305.26 181.315 240.554 129.281 160.858 129.281C81.163 129.281 16.5781 181.315 16.5781 237.248C16.6897 251.173 20.6544 264.797 28.0328 276.608C50.0892 259.791 101.148 247.849 160.858 247.849Z" fill="#CFEDFC"/>
<path d="M160.849 248.218C220.56 248.218 271.74 260.404 293.553 276.733C300.925 265.054 304.892 251.549 305.008 237.739C305.008 182.171 240.423 130.625 160.849 130.625C81.2756 130.625 16.8125 182.293 16.8125 237.739C16.9007 251.574 20.8239 265.115 28.1456 276.855C50.0801 260.039 101.26 248.218 160.849 248.218Z" fill="#D5EFFC"/>
<path d="M160.836 248.584C220.425 248.584 271.606 260.77 293.418 276.977C300.758 265.38 304.685 251.951 304.751 238.226C304.751 183.146 240.288 131.844 160.836 131.844C81.3849 131.844 16.9219 183.146 16.9219 238.226C17.024 251.963 20.9939 265.393 28.3766 276.977C50.0674 260.282 101.37 248.584 160.836 248.584Z" fill="#DAF1FD"/>
<path d="M160.843 248.95C220.432 248.95 271.49 261.136 293.181 277.099C300.547 265.642 304.518 252.333 304.636 238.713C304.636 183.999 240.173 133.062 160.843 133.062C81.5132 133.062 17.1719 183.999 17.1719 238.592C17.2305 252.241 21.1605 265.594 28.505 277.099C50.0739 260.648 101.498 248.95 160.843 248.95Z" fill="#E0F3FD"/>
<path d="M160.849 249.315C220.316 249.315 271.253 260.892 293.065 277.343C300.318 265.886 304.242 252.638 304.398 239.079C304.398 184.974 240.057 134.281 160.849 134.281C81.6411 134.281 17.4219 184.974 17.4219 239.079C17.4998 252.649 21.4298 265.919 28.7546 277.343C50.0798 260.892 101.504 249.437 160.849 249.315Z" fill="#E6F5FD"/>
<path d="M160.852 249.803C220.197 249.803 271.134 261.258 292.825 277.465C300.145 266.174 304.078 253.023 304.158 239.567C304.158 185.828 239.938 135.5 160.852 135.5C81.7663 135.5 17.5469 185.828 17.5469 239.567C17.6805 253.015 21.6091 266.152 28.88 277.465C50.6926 261.258 101.629 249.803 160.852 249.803Z" fill="#EBF7FE"/>
<path d="M160.843 250.172C220.188 250.172 270.515 261.505 292.572 277.59C299.924 266.443 303.902 253.411 304.026 240.058C304.026 186.684 239.807 136.844 160.843 136.844C81.8786 136.844 17.7812 186.684 17.7812 240.058C17.8736 253.436 21.8072 266.505 29.114 277.712C50.8048 261.505 101.741 250.172 160.843 250.172Z" fill="#F1FAFE"/>
<path d="M160.849 250.537C220.072 250.537 270.522 261.871 292.456 277.834C299.703 266.735 303.634 253.8 303.789 240.545C303.789 187.659 239.691 138.062 160.849 138.062C82.0069 138.062 18.0312 187.659 18.0312 240.545C18.1434 253.789 22.0329 266.725 29.2424 277.834C50.9332 261.871 101.748 250.537 160.849 250.537Z" fill="#F7FCFE"/>
<path d="M160.852 250.913C219.953 250.913 270.525 262.124 292.215 277.965C299.441 267.128 303.376 254.432 303.548 241.408C303.548 188.887 239.573 139.656 160.852 139.656C82.1317 139.656 18.1562 188.399 18.1562 241.408C18.3281 254.432 22.2638 267.128 29.489 277.965C51.0579 262.124 101.873 250.913 160.852 250.913Z" fill="white"/>
</g>
<path d="M159.753 198.5C112.292 198.079 65.1327 206.083 20.4688 222.141C32.4508 249.075 51.985 271.957 76.7059 288.017C101.427 304.076 130.274 312.623 159.753 312.623C189.232 312.623 218.079 304.076 242.8 288.017C267.52 271.957 287.055 249.075 299.037 222.141C254.373 206.083 207.214 198.079 159.753 198.5Z" fill="#0083CA"/>
</g>
<defs>
<clipPath id="clip0_384_1723">
<rect width="320" height="320" fill="white"/>
</clipPath>
</defs>
</svg>
